<?xml version="1.0" standalone="no"?>
<!DOCTYPE svg PUBLIC "-//W3C//DTD SVG 20010904//EN"
 "http://www.w3.org/TR/2001/REC-SVG-20010904/DTD/svg10.dtd">
<svg version="1.0" xmlns="http://www.w3.org/2000/svg"
 width="112.000000pt" height="112.000000pt" viewBox="0 0 112.000000 112.000000"
 preserveAspectRatio="xMidYMid meet">
<metadata>
Created by potrace 1.11, written by Peter Selinger 2001-2013
</metadata>
<g transform="translate(0.000000,112.000000) scale(0.100000,-0.100000)"
fill="#000000" stroke="none">
<path d="M80 1001 c-5 -11 -10 -38 -10 -60 0 -69 52 -99 124 -71 24 9 26 14
26 68 0 32 -5 63 -12 70 -7 7 -36 12 -65 12 -41 0 -54 -4 -63 -19z"/>
<path d="M446 1004 c-11 -11 -16 -35 -16 -79 0 -85 11 -95 104 -95 92 0 101 9
101 97 0 82 -13 93 -106 93 -48 0 -72 -5 -83 -16z m157 -76 c18 -18 17 -39 -3
-60 -31 -30 -80 -11 -80 32 0 45 50 62 83 28z"/>
<path d="M672 1008 c-16 -16 -16 -150 0 -166 8 -8 65 -12 189 -12 211 0 209
-1 209 95 0 96 2 95 -209 95 -124 0 -181 -4 -189 -12z m353 -44 c9 -14 14 -32
11 -40 -3 -8 -1 -14 4 -14 13 0 13 -47 1 -55 -19 -11 -101 -9 -113 3 -10 10
-10 17 0 32 6 11 12 30 12 42 0 27 27 58 50 58 10 0 25 -12 35 -26z"/>
<path d="M980 930 c0 -11 4 -20 9 -20 5 0 7 9 4 20 -3 11 -7 20 -9 20 -2 0 -4
-9 -4 -20z"/>
<path d="M448 800 c-14 -9 -18 -25 -18 -78 0 -40 5 -73 12 -80 17 -17 329 -17
346 0 14 14 16 126 2 148 -7 12 -40 15 -167 18 -98 1 -165 -2 -175 -8z m320
-102 c3 -43 1 -48 -17 -48 -17 0 -21 6 -21 30 0 27 -3 30 -32 29 -18 0 -27 -3
-20 -6 14 -6 17 -53 2 -53 -5 0 -10 9 -10 20 0 11 -4 20 -10 20 -5 0 -10 -9
-10 -20 0 -16 -7 -20 -30 -20 -20 0 -30 5 -30 15 0 8 -4 15 -10 15 -5 0 -10
-7 -10 -15 0 -8 -4 -15 -10 -15 -5 0 -10 11 -10 24 0 18 7 26 23 29 12 2 1 5
-25 6 -47 1 -48 0 -48 -29 0 -23 -4 -30 -20 -30 -17 0 -20 7 -20 50 l0 51 153
-3 152 -3 3 -47z"/>
<path d="M610 695 c0 -8 5 -15 10 -15 6 0 10 7 10 15 0 8 -4 15 -10 15 -5 0
-10 -7 -10 -15z"/>
<path d="M146 644 c-20 -19 -22 -144 -4 -162 17 -17 239 -17 256 0 7 7 12 40
12 79 0 95 -6 99 -140 99 -85 0 -112 -3 -124 -16z m164 -74 c-25 -25 -25 -34
2 -60 12 -11 18 -20 13 -20 -16 0 -45 33 -45 51 0 19 25 49 41 49 5 0 0 -9
-11 -20z m74 -12 c8 -22 6 -32 -9 -48 -10 -11 -23 -20 -28 -20 -6 0 -1 9 11
20 27 26 27 35 1 61 -19 19 -19 20 -3 17 10 -2 23 -15 28 -30z"/>
<path d="M582 598 c-17 -17 -15 -103 2 -117 9 -8 46 -11 103 -9 l88 3 3 53 c2
31 -2 60 -9 68 -15 18 -169 20 -187 2z"/>
<path d="M310 335 c0 -16 6 -25 15 -25 12 0 15 -18 15 -105 l0 -105 25 0 25 0
0 130 0 130 -40 0 c-36 0 -40 -2 -40 -25z"/>
<path d="M428 354 c-10 -10 4 -44 19 -44 7 0 13 -6 12 -12 -5 -43 2 -58 26
-58 24 0 25 3 25 60 l0 60 -38 0 c-21 0 -41 -3 -44 -6z"/>
<path d="M540 335 c0 -23 4 -25 45 -25 l44 0 3 -72 c3 -70 4 -73 28 -73 24 0
25 2 28 77 4 99 -11 118 -93 118 -52 0 -55 -1 -55 -25z"/>
<path d="M710 347 c0 -8 18 -33 40 -58 67 -73 68 -79 15 -79 -41 0 -45 -2 -45
-25 0 -25 1 -25 80 -25 74 0 80 2 80 20 0 12 -7 31 -16 45 -14 21 -14 26 0 54
9 16 20 32 25 35 5 3 7 15 4 26 -4 14 -14 20 -34 20 -27 0 -29 -3 -29 -36 0
-44 -19 -42 -39 4 -12 27 -20 32 -48 32 -21 0 -33 -5 -33 -13z"/>
<path d="M920 335 c0 -24 2 -25 70 -25 39 0 70 -2 70 -5 0 -2 -11 -34 -25 -70
-21 -56 -22 -67 -10 -71 8 -4 21 -4 28 -1 16 6 72 172 63 186 -5 7 -44 11
-102 11 -94 0 -94 0 -94 -25z"/>
<path d="M936 258 c-3 -13 -6 -53 -6 -90 0 -66 1 -68 25 -68 25 0 25 1 25 90
0 81 -2 90 -19 90 -11 0 -21 -9 -25 -22z"/>
</g>
</svg>
